<svg xmlns="http://www.w3.org/2000/svg" width="400" height="1080" viewBox="0 0 400 1080">
<rect width="400" height="1080" fill="white"/>
<g font-family="Arial, Helvetica, sans-serif">
<line x1="60.46153846153846" y1="177" x2="60.46153846153846" y2="920" stroke="#e6e6e6" stroke-width="1" stroke-dasharray="3,4"/>
<line x1="71.23076923076923" y1="177" x2="71.23076923076923" y2="920" stroke="#e6e6e6" stroke-width="1" stroke-dasharray="3,4"/>
<line x1="82" y1="177" x2="82" y2="920" stroke="#e6e6e6" stroke-width="1" stroke-dasharray="3,4"/>
<line x1="92.76923076923076" y1="177" x2="92.76923076923076" y2="920" stroke="#e6e6e6" stroke-width="1" stroke-dasharray="3,4"/>
<line x1="103.53846153846153" y1="177" x2="103.53846153846153" y2="920" stroke="#e6e6e6" stroke-width="1" stroke-dasharray="3,4"/>
<line x1="114.3076923076923" y1="177" x2="114.3076923076923" y2="920" stroke="#e6e6e6" stroke-width="1" stroke-dasharray="3,4"/>
<line x1="125.07692307692308" y1="177" x2="125.07692307692308" y2="920" stroke="#e6e6e6" stroke-width="1" stroke-dasharray="3,4"/>
<line x1="135.84615384615387" y1="177" x2="135.84615384615387" y2="920" stroke="#e6e6e6" stroke-width="1" stroke-dasharray="3,4"/>
<line x1="146.61538461538464" y1="177" x2="146.61538461538464" y2="920" stroke="#e6e6e6" stroke-width="1" stroke-dasharray="3,4"/>
<line x1="157.38461538461542" y1="177" x2="157.38461538461542" y2="920" stroke="#e6e6e6" stroke-width="1" stroke-dasharray="3,4"/>
<line x1="168.1538461538462" y1="177" x2="168.1538461538462" y2="920" stroke="#e6e6e6" stroke-width="1" stroke-dasharray="3,4"/>
<line x1="178.92307692307693" y1="177" x2="178.92307692307693" y2="920" stroke="#e6e6e6" stroke-width="1" stroke-dasharray="3,4"/>
<line x1="189.6923076923077" y1="177" x2="189.6923076923077" y2="920" stroke="#e6e6e6" stroke-width="1" stroke-dasharray="3,4"/>
<line x1="200.46153846153848" y1="177" x2="200.46153846153848" y2="920" stroke="#e6e6e6" stroke-width="1" stroke-dasharray="3,4"/>
<line x1="211.23076923076925" y1="177" x2="211.23076923076925" y2="920" stroke="#e6e6e6" stroke-width="1" stroke-dasharray="3,4"/>
<line x1="222.00000000000003" y1="177" x2="222.00000000000003" y2="920" stroke="#e6e6e6" stroke-width="1" stroke-dasharray="3,4"/>
<line x1="232.7692307692308" y1="177" x2="232.7692307692308" y2="920" stroke="#e6e6e6" stroke-width="1" stroke-dasharray="3,4"/>
<line x1="243.53846153846158" y1="177" x2="243.53846153846158" y2="920" stroke="#e6e6e6" stroke-width="1" stroke-dasharray="3,4"/>
<line x1="254.30769230769235" y1="177" x2="254.30769230769235" y2="920" stroke="#e6e6e6" stroke-width="1" stroke-dasharray="3,4"/>
<line x1="265.0769230769231" y1="177" x2="265.0769230769231" y2="920" stroke="#e6e6e6" stroke-width="1" stroke-dasharray="3,4"/>
<line x1="275.84615384615387" y1="177" x2="275.84615384615387" y2="920" stroke="#e6e6e6" stroke-width="1" stroke-dasharray="3,4"/>
<line x1="286.61538461538464" y1="177" x2="286.61538461538464" y2="920" stroke="#e6e6e6" stroke-width="1" stroke-dasharray="3,4"/>
<line x1="297.3846153846154" y1="177" x2="297.3846153846154" y2="920" stroke="#e6e6e6" stroke-width="1" stroke-dasharray="3,4"/>
<line x1="308.1538461538462" y1="177" x2="308.1538461538462" y2="920" stroke="#e6e6e6" stroke-width="1" stroke-dasharray="3,4"/>
<line x1="318.9230769230769" y1="177" x2="318.9230769230769" y2="920" stroke="#e6e6e6" stroke-width="1" stroke-dasharray="3,4"/>
<line x1="329.6923076923077" y1="177" x2="329.6923076923077" y2="920" stroke="#e6e6e6" stroke-width="1" stroke-dasharray="3,4"/>
<line x1="340.46153846153845" y1="177" x2="340.46153846153845" y2="920" stroke="#e6e6e6" stroke-width="1" stroke-dasharray="3,4"/>
<line x1="351.2307692307692" y1="177" x2="351.2307692307692" y2="920" stroke="#e6e6e6" stroke-width="1" stroke-dasharray="3,4"/>
<line x1="362" y1="177" x2="362" y2="920" stroke="#e6e6e6" stroke-width="1" stroke-dasharray="3,4"/>
<line x1="372.7692307692308" y1="177" x2="372.7692307692308" y2="920" stroke="#e6e6e6" stroke-width="1" stroke-dasharray="3,4"/>
<line x1="383.53846153846155" y1="177" x2="383.53846153846155" y2="920" stroke="#e6e6e6" stroke-width="1" stroke-dasharray="3,4"/>
<line x1="54" y1="319.8888888888889" x2="390" y2="319.8888888888889" stroke="#eee" stroke-width="1.5" stroke-dasharray="4,4"/>
<text x="46" y="319.8888888888889" text-anchor="end" dominant-baseline="middle" fill="#888" font-size="15" font-weight="700">26</text>
<line x1="54" y1="248.44444444444446" x2="390" y2="248.44444444444446" stroke="#eee" stroke-width="1.5" stroke-dasharray="4,4"/>
<text x="46" y="248.44444444444446" text-anchor="end" dominant-baseline="middle" fill="#888" font-size="15" font-weight="700">52</text>
<text x="222" y="160" text-anchor="middle" dominant-baseline="middle" fill="#333" font-size="18" font-weight="700">Num. Participants</text>
<line x1="60.46153846153846" y1="391.3333333333333" x2="60.46153846153846" y2="396.3333333333333" stroke="#888" stroke-width="1"/>
<line x1="71.23076923076923" y1="391.3333333333333" x2="71.23076923076923" y2="396.3333333333333" stroke="#888" stroke-width="1"/>
<line x1="82" y1="391.3333333333333" x2="82" y2="396.3333333333333" stroke="#888" stroke-width="1"/>
<line x1="92.76923076923076" y1="391.3333333333333" x2="92.76923076923076" y2="396.3333333333333" stroke="#888" stroke-width="1"/>
<line x1="103.53846153846153" y1="391.3333333333333" x2="103.53846153846153" y2="396.3333333333333" stroke="#888" stroke-width="1"/>
<line x1="114.3076923076923" y1="391.3333333333333" x2="114.3076923076923" y2="396.3333333333333" stroke="#888" stroke-width="1"/>
<line x1="125.07692307692308" y1="391.3333333333333" x2="125.07692307692308" y2="396.3333333333333" stroke="#888" stroke-width="1"/>
<line x1="135.84615384615387" y1="391.3333333333333" x2="135.84615384615387" y2="396.3333333333333" stroke="#888" stroke-width="1"/>
<line x1="146.61538461538464" y1="391.3333333333333" x2="146.61538461538464" y2="396.3333333333333" stroke="#888" stroke-width="1"/>
<line x1="157.38461538461542" y1="391.3333333333333" x2="157.38461538461542" y2="396.3333333333333" stroke="#888" stroke-width="1"/>
<line x1="168.1538461538462" y1="391.3333333333333" x2="168.1538461538462" y2="396.3333333333333" stroke="#888" stroke-width="1"/>
<line x1="178.92307692307693" y1="391.3333333333333" x2="178.92307692307693" y2="396.3333333333333" stroke="#888" stroke-width="1"/>
<line x1="189.6923076923077" y1="391.3333333333333" x2="189.6923076923077" y2="396.3333333333333" stroke="#888" stroke-width="1"/>
<line x1="200.46153846153848" y1="391.3333333333333" x2="200.46153846153848" y2="396.3333333333333" stroke="#888" stroke-width="1"/>
<line x1="211.23076923076925" y1="391.3333333333333" x2="211.23076923076925" y2="396.3333333333333" stroke="#888" stroke-width="1"/>
<line x1="222.00000000000003" y1="391.3333333333333" x2="222.00000000000003" y2="396.3333333333333" stroke="#888" stroke-width="1"/>
<line x1="232.7692307692308" y1="391.3333333333333" x2="232.7692307692308" y2="396.3333333333333" stroke="#888" stroke-width="1"/>
<line x1="243.53846153846158" y1="391.3333333333333" x2="243.53846153846158" y2="396.3333333333333" stroke="#888" stroke-width="1"/>
<line x1="254.30769230769235" y1="391.3333333333333" x2="254.30769230769235" y2="396.3333333333333" stroke="#888" stroke-width="1"/>
<line x1="265.0769230769231" y1="391.3333333333333" x2="265.0769230769231" y2="396.3333333333333" stroke="#888" stroke-width="1"/>
<line x1="275.84615384615387" y1="391.3333333333333" x2="275.84615384615387" y2="396.3333333333333" stroke="#888" stroke-width="1"/>
<line x1="286.61538461538464" y1="391.3333333333333" x2="286.61538461538464" y2="396.3333333333333" stroke="#888" stroke-width="1"/>
<line x1="297.3846153846154" y1="391.3333333333333" x2="297.3846153846154" y2="396.3333333333333" stroke="#888" stroke-width="1"/>
<line x1="308.1538461538462" y1="391.3333333333333" x2="308.1538461538462" y2="396.3333333333333" stroke="#888" stroke-width="1"/>
<line x1="318.9230769230769" y1="391.3333333333333" x2="318.9230769230769" y2="396.3333333333333" stroke="#888" stroke-width="1"/>
<line x1="329.6923076923077" y1="391.3333333333333" x2="329.6923076923077" y2="396.3333333333333" stroke="#888" stroke-width="1"/>
<line x1="340.46153846153845" y1="391.3333333333333" x2="340.46153846153845" y2="396.3333333333333" stroke="#888" stroke-width="1"/>
<line x1="351.2307692307692" y1="391.3333333333333" x2="351.2307692307692" y2="396.3333333333333" stroke="#888" stroke-width="1"/>
<line x1="362" y1="391.3333333333333" x2="362" y2="396.3333333333333" stroke="#888" stroke-width="1"/>
<line x1="372.7692307692308" y1="391.3333333333333" x2="372.7692307692308" y2="396.3333333333333" stroke="#888" stroke-width="1"/>
<line x1="383.53846153846155" y1="391.3333333333333" x2="383.53846153846155" y2="396.3333333333333" stroke="#888" stroke-width="1"/>
<rect x="56.15384615384615" y="240.20085470085468" width="8.615384615384617" height="151.13247863247864" fill="#118ab2" fill-opacity="0.7" rx="2" ry="2"/>
<text x="60.46153846153846" y="236.20085470085468" text-anchor="middle" fill="#777" font-size="12" font-weight="700">55</text>
<rect x="88.46153846153845" y="273.1752136752136" width="8.615384615384617" height="118.15811965811969" fill="#118ab2" fill-opacity="0.7" rx="2" ry="2"/>
<text x="92.76923076923076" y="269.1752136752136" text-anchor="middle" fill="#777" font-size="12" font-weight="700">43</text>
<rect x="99.23076923076923" y="273.1752136752136" width="8.615384615384617" height="118.15811965811969" fill="#118ab2" fill-opacity="0.7" rx="2" ry="2"/>
<text x="103.53846153846153" y="269.1752136752136" text-anchor="middle" fill="#777" font-size="12" font-weight="700">43</text>
<rect x="110" y="347.36752136752136" width="8.615384615384617" height="43.96581196581195" fill="#118ab2" fill-opacity="0.7" rx="2" ry="2"/>
<text x="114.3076923076923" y="343.36752136752136" text-anchor="middle" fill="#777" font-size="12" font-weight="700">16</text>
<rect x="120.76923076923077" y="256.6880341880342" width="8.615384615384617" height="134.64529914529913" fill="#118ab2" fill-opacity="0.7" rx="2" ry="2"/>
<text x="125.07692307692308" y="252.68803418803418" text-anchor="middle" fill="#777" font-size="12" font-weight="700">49</text>
<rect x="142.30769230769232" y="275.9230769230769" width="8.615384615384617" height="115.41025641025641" fill="#118ab2" fill-opacity="0.7" rx="2" ry="2"/>
<text x="146.61538461538464" y="271.9230769230769" text-anchor="middle" fill="#777" font-size="12" font-weight="700">42</text>
<rect x="153.0769230769231" y="248.44444444444446" width="8.615384615384617" height="142.88888888888886" fill="#118ab2" fill-opacity="0.7" rx="2" ry="2"/>
<text x="157.38461538461542" y="244.44444444444446" text-anchor="middle" fill="#777" font-size="12" font-weight="700">52</text>
<rect x="163.84615384615387" y="347.36752136752136" width="8.615384615384617" height="43.96581196581195" fill="#118ab2" fill-opacity="0.7" rx="2" ry="2"/>
<text x="168.1538461538462" y="343.36752136752136" text-anchor="middle" fill="#777" font-size="12" font-weight="700">16</text>
<rect x="174.6153846153846" y="303.4017094017094" width="8.615384615384617" height="87.9316239316239" fill="#118ab2" fill-opacity="0.7" rx="2" ry="2"/>
<text x="178.92307692307693" y="299.4017094017094" text-anchor="middle" fill="#777" font-size="12" font-weight="700">32</text>
<rect x="185.3846153846154" y="322.63675213675214" width="8.615384615384617" height="68.69658119658118" fill="#118ab2" fill-opacity="0.7" rx="2" ry="2"/>
<text x="189.6923076923077" y="318.63675213675214" text-anchor="middle" fill="#777" font-size="12" font-weight="700">25</text>
<rect x="196.15384615384616" y="314.39316239316236" width="8.615384615384617" height="76.94017094017096" fill="#118ab2" fill-opacity="0.7" rx="2" ry="2"/>
<text x="200.46153846153848" y="310.39316239316236" text-anchor="middle" fill="#777" font-size="12" font-weight="700">28</text>
<rect x="206.92307692307693" y="297.9059829059829" width="8.615384615384617" height="93.4273504273504" fill="#118ab2" fill-opacity="0.7" rx="2" ry="2"/>
<text x="211.23076923076925" y="293.9059829059829" text-anchor="middle" fill="#777" font-size="12" font-weight="700">34</text>
<rect x="217.6923076923077" y="352.86324786324786" width="8.615384615384617" height="38.47008547008545" fill="#118ab2" fill-opacity="0.7" rx="2" ry="2"/>
<text x="222.00000000000003" y="348.86324786324786" text-anchor="middle" fill="#777" font-size="12" font-weight="700">14</text>
<rect x="228.46153846153848" y="330.88034188034186" width="8.615384615384617" height="60.452991452991455" fill="#118ab2" fill-opacity="0.7" rx="2" ry="2"/>
<text x="232.7692307692308" y="326.88034188034186" text-anchor="middle" fill="#777" font-size="12" font-weight="700">22</text>
<rect x="239.23076923076925" y="319.8888888888889" width="8.615384615384617" height="71.4444444444444" fill="#118ab2" fill-opacity="0.7" rx="2" ry="2"/>
<text x="243.53846153846158" y="315.8888888888889" text-anchor="middle" fill="#777" font-size="12" font-weight="700">26</text>
<rect x="250.00000000000003" y="300.65384615384613" width="8.615384615384617" height="90.67948717948718" fill="#118ab2" fill-opacity="0.7" rx="2" ry="2"/>
<text x="254.30769230769235" y="296.65384615384613" text-anchor="middle" fill="#777" font-size="12" font-weight="700">33</text>
<rect x="260.7692307692308" y="289.6623931623932" width="8.615384615384617" height="101.67094017094013" fill="#118ab2" fill-opacity="0.7" rx="2" ry="2"/>
<text x="265.0769230769231" y="285.6623931623932" text-anchor="middle" fill="#777" font-size="12" font-weight="700">37</text>
<rect x="271.53846153846155" y="328.13247863247864" width="8.615384615384617" height="63.20085470085468" fill="#118ab2" fill-opacity="0.7" rx="2" ry="2"/>
<text x="275.84615384615387" y="324.13247863247864" text-anchor="middle" fill="#777" font-size="12" font-weight="700">23</text>
<rect x="282.3076923076923" y="277.29700854700855" width="8.615384615384617" height="114.03632478632477" fill="#118ab2" fill-opacity="0.7" rx="2" ry="2"/>
<text x="286.61538461538464" y="273.29700854700855" text-anchor="middle" fill="#777" font-size="12" font-weight="700">41.5</text>
<rect x="293.0769230769231" y="339.12393162393164" width="8.615384615384617" height="52.209401709401675" fill="#118ab2" fill-opacity="0.7" rx="2" ry="2"/>
<text x="297.3846153846154" y="335.12393162393164" text-anchor="middle" fill="#777" font-size="12" font-weight="700">19</text>
<rect x="303.84615384615387" y="347.36752136752136" width="8.615384615384617" height="43.96581196581195" fill="#118ab2" fill-opacity="0.7" rx="2" ry="2"/>
<text x="308.1538461538462" y="343.36752136752136" text-anchor="middle" fill="#777" font-size="12" font-weight="700">16</text>
<rect x="314.6153846153846" y="308.8974358974359" width="8.615384615384617" height="82.4358974358974" fill="#118ab2" fill-opacity="0.7" rx="2" ry="2"/>
<text x="318.9230769230769" y="304.8974358974359" text-anchor="middle" fill="#777" font-size="12" font-weight="700">30</text>
<rect x="325.38461538461536" y="336.37606837606836" width="8.615384615384617" height="54.957264957264954" fill="#118ab2" fill-opacity="0.7" rx="2" ry="2"/>
<text x="329.6923076923077" y="332.37606837606836" text-anchor="middle" fill="#777" font-size="12" font-weight="700">20</text>
<rect x="336.15384615384613" y="201.73076923076923" width="8.615384615384617" height="189.6025641025641" fill="#118ab2" fill-opacity="0.7" rx="2" ry="2"/>
<text x="340.46153846153845" y="197.73076923076923" text-anchor="middle" fill="#777" font-size="12" font-weight="700">69</text>
<rect x="346.9230769230769" y="336.37606837606836" width="8.615384615384617" height="54.957264957264954" fill="#118ab2" fill-opacity="0.7" rx="2" ry="2"/>
<text x="351.2307692307692" y="332.37606837606836" text-anchor="middle" fill="#777" font-size="12" font-weight="700">20</text>
<rect x="357.6923076923077" y="177" width="8.615384615384617" height="214.33333333333331" fill="#118ab2" fill-opacity="0.7" rx="2" ry="2"/>
<text x="362" y="173" text-anchor="middle" fill="#777" font-size="12" font-weight="700">78</text>
<rect x="368.46153846153845" y="281.4188034188034" width="8.615384615384617" height="109.91452991452991" fill="#118ab2" fill-opacity="0.7" rx="2" ry="2"/>
<text x="372.7692307692308" y="277.4188034188034" text-anchor="middle" fill="#777" font-size="12" font-weight="700">40</text>
<line x1="54" y1="583.865" x2="390" y2="583.865" stroke="#eee" stroke-width="1.5" stroke-dasharray="4,4"/>
<text x="46" y="583.865" text-anchor="end" dominant-baseline="middle" fill="#888" font-size="15" font-weight="700">67</text>
<line x1="54" y1="512.0633333333333" x2="390" y2="512.0633333333333" stroke="#eee" stroke-width="1.5" stroke-dasharray="4,4"/>
<text x="46" y="512.0633333333333" text-anchor="end" dominant-baseline="middle" fill="#888" font-size="15" font-weight="700">134</text>
<text x="222" y="424.3333333333333" text-anchor="middle" dominant-baseline="middle" fill="#333" font-size="18" font-weight="700">Num. of Graphs</text>
<line x1="60.46153846153846" y1="655.6666666666666" x2="60.46153846153846" y2="660.6666666666666" stroke="#888" stroke-width="1"/>
<line x1="71.23076923076923" y1="655.6666666666666" x2="71.23076923076923" y2="660.6666666666666" stroke="#888" stroke-width="1"/>
<line x1="82" y1="655.6666666666666" x2="82" y2="660.6666666666666" stroke="#888" stroke-width="1"/>
<line x1="92.76923076923076" y1="655.6666666666666" x2="92.76923076923076" y2="660.6666666666666" stroke="#888" stroke-width="1"/>
<line x1="103.53846153846153" y1="655.6666666666666" x2="103.53846153846153" y2="660.6666666666666" stroke="#888" stroke-width="1"/>
<line x1="114.3076923076923" y1="655.6666666666666" x2="114.3076923076923" y2="660.6666666666666" stroke="#888" stroke-width="1"/>
<line x1="125.07692307692308" y1="655.6666666666666" x2="125.07692307692308" y2="660.6666666666666" stroke="#888" stroke-width="1"/>
<line x1="135.84615384615387" y1="655.6666666666666" x2="135.84615384615387" y2="660.6666666666666" stroke="#888" stroke-width="1"/>
<line x1="146.61538461538464" y1="655.6666666666666" x2="146.61538461538464" y2="660.6666666666666" stroke="#888" stroke-width="1"/>
<line x1="157.38461538461542" y1="655.6666666666666" x2="157.38461538461542" y2="660.6666666666666" stroke="#888" stroke-width="1"/>
<line x1="168.1538461538462" y1="655.6666666666666" x2="168.1538461538462" y2="660.6666666666666" stroke="#888" stroke-width="1"/>
<line x1="178.92307692307693" y1="655.6666666666666" x2="178.92307692307693" y2="660.6666666666666" stroke="#888" stroke-width="1"/>
<line x1="189.6923076923077" y1="655.6666666666666" x2="189.6923076923077" y2="660.6666666666666" stroke="#888" stroke-width="1"/>
<line x1="200.46153846153848" y1="655.6666666666666" x2="200.46153846153848" y2="660.6666666666666" stroke="#888" stroke-width="1"/>
<line x1="211.23076923076925" y1="655.6666666666666" x2="211.23076923076925" y2="660.6666666666666" stroke="#888" stroke-width="1"/>
<line x1="222.00000000000003" y1="655.6666666666666" x2="222.00000000000003" y2="660.6666666666666" stroke="#888" stroke-width="1"/>
<line x1="232.7692307692308" y1="655.6666666666666" x2="232.7692307692308" y2="660.6666666666666" stroke="#888" stroke-width="1"/>
<line x1="243.53846153846158" y1="655.6666666666666" x2="243.53846153846158" y2="660.6666666666666" stroke="#888" stroke-width="1"/>
<line x1="254.30769230769235" y1="655.6666666666666" x2="254.30769230769235" y2="660.6666666666666" stroke="#888" stroke-width="1"/>
<line x1="265.0769230769231" y1="655.6666666666666" x2="265.0769230769231" y2="660.6666666666666" stroke="#888" stroke-width="1"/>
<line x1="275.84615384615387" y1="655.6666666666666" x2="275.84615384615387" y2="660.6666666666666" stroke="#888" stroke-width="1"/>
<line x1="286.61538461538464" y1="655.6666666666666" x2="286.61538461538464" y2="660.6666666666666" stroke="#888" stroke-width="1"/>
<line x1="297.3846153846154" y1="655.6666666666666" x2="297.3846153846154" y2="660.6666666666666" stroke="#888" stroke-width="1"/>
<line x1="308.1538461538462" y1="655.6666666666666" x2="308.1538461538462" y2="660.6666666666666" stroke="#888" stroke-width="1"/>
<line x1="318.9230769230769" y1="655.6666666666666" x2="318.9230769230769" y2="660.6666666666666" stroke="#888" stroke-width="1"/>
<line x1="329.6923076923077" y1="655.6666666666666" x2="329.6923076923077" y2="660.6666666666666" stroke="#888" stroke-width="1"/>
<line x1="340.46153846153845" y1="655.6666666666666" x2="340.46153846153845" y2="660.6666666666666" stroke="#888" stroke-width="1"/>
<line x1="351.2307692307692" y1="655.6666666666666" x2="351.2307692307692" y2="660.6666666666666" stroke="#888" stroke-width="1"/>
<line x1="362" y1="655.6666666666666" x2="362" y2="660.6666666666666" stroke="#888" stroke-width="1"/>
<line x1="372.7692307692308" y1="655.6666666666666" x2="372.7692307692308" y2="660.6666666666666" stroke="#888" stroke-width="1"/>
<line x1="383.53846153846155" y1="655.6666666666666" x2="383.53846153846155" y2="660.6666666666666" stroke="#888" stroke-width="1"/>
<rect x="56.15384615384615" y="654.5949999999999" width="8.615384615384617" height="1.0716666666667152" fill="#ef476f" fill-opacity="0.7" rx="2" ry="2"/>
<text x="60.46153846153846" y="650.5949999999999" text-anchor="middle" fill="#777" font-size="12" font-weight="700">1</text>
<rect x="66.92307692307692" y="654.5949999999999" width="8.615384615384617" height="1.0716666666667152" fill="#ef476f" fill-opacity="0.7" rx="2" ry="2"/>
<text x="71.23076923076923" y="650.5949999999999" text-anchor="middle" fill="#777" font-size="12" font-weight="700">1</text>
<rect x="110" y="653.5233333333333" width="8.615384615384617" height="2.1433333333333167" fill="#ef476f" fill-opacity="0.7" rx="2" ry="2"/>
<text x="114.3076923076923" y="649.5233333333333" text-anchor="middle" fill="#777" font-size="12" font-weight="700">2</text>
<rect x="120.76923076923077" y="653.5233333333333" width="8.615384615384617" height="2.1433333333333167" fill="#ef476f" fill-opacity="0.7" rx="2" ry="2"/>
<text x="125.07692307692308" y="649.5233333333333" text-anchor="middle" fill="#777" font-size="12" font-weight="700">2</text>
<rect x="131.53846153846155" y="653.5233333333333" width="8.615384615384617" height="2.1433333333333167" fill="#ef476f" fill-opacity="0.7" rx="2" ry="2"/>
<text x="135.84615384615387" y="649.5233333333333" text-anchor="middle" fill="#777" font-size="12" font-weight="700">2</text>
<rect x="142.30769230769232" y="652.4516666666666" width="8.615384615384617" height="3.215000000000032" fill="#ef476f" fill-opacity="0.7" rx="2" ry="2"/>
<text x="146.61538461538464" y="648.4516666666666" text-anchor="middle" fill="#777" font-size="12" font-weight="700">3</text>
<rect x="153.0769230769231" y="652.4516666666666" width="8.615384615384617" height="3.215000000000032" fill="#ef476f" fill-opacity="0.7" rx="2" ry="2"/>
<text x="157.38461538461542" y="648.4516666666666" text-anchor="middle" fill="#777" font-size="12" font-weight="700">3</text>
<rect x="163.84615384615387" y="653.5233333333333" width="8.615384615384617" height="2.1433333333333167" fill="#ef476f" fill-opacity="0.7" rx="2" ry="2"/>
<text x="168.1538461538462" y="649.5233333333333" text-anchor="middle" fill="#777" font-size="12" font-weight="700">2</text>
<rect x="174.6153846153846" y="441.3333333333333" width="8.615384615384617" height="214.33333333333331" fill="#ef476f" fill-opacity="0.7" rx="2" ry="2"/>
<text x="178.92307692307693" y="437.3333333333333" text-anchor="middle" fill="#777" font-size="12" font-weight="700">200</text>
<rect x="185.3846153846154" y="652.4516666666666" width="8.615384615384617" height="3.215000000000032" fill="#ef476f" fill-opacity="0.7" rx="2" ry="2"/>
<text x="189.6923076923077" y="648.4516666666666" text-anchor="middle" fill="#777" font-size="12" font-weight="700">3</text>
<rect x="196.15384615384616" y="653.5233333333333" width="8.615384615384617" height="2.1433333333333167" fill="#ef476f" fill-opacity="0.7" rx="2" ry="2"/>
<text x="200.46153846153848" y="649.5233333333333" text-anchor="middle" fill="#777" font-size="12" font-weight="700">2</text>
<rect x="217.6923076923077" y="652.4516666666666" width="8.615384615384617" height="3.215000000000032" fill="#ef476f" fill-opacity="0.7" rx="2" ry="2"/>
<text x="222.00000000000003" y="648.4516666666666" text-anchor="middle" fill="#777" font-size="12" font-weight="700">3</text>
<rect x="228.46153846153848" y="638.52" width="8.615384615384617" height="17.146666666666647" fill="#ef476f" fill-opacity="0.7" rx="2" ry="2"/>
<text x="232.7692307692308" y="634.52" text-anchor="middle" fill="#777" font-size="12" font-weight="700">16</text>
<rect x="239.23076923076925" y="651.38" width="8.615384615384617" height="4.286666666666633" fill="#ef476f" fill-opacity="0.7" rx="2" ry="2"/>
<text x="243.53846153846158" y="647.38" text-anchor="middle" fill="#777" font-size="12" font-weight="700">4</text>
<rect x="260.7692307692308" y="638.52" width="8.615384615384617" height="17.146666666666647" fill="#ef476f" fill-opacity="0.7" rx="2" ry="2"/>
<text x="265.0769230769231" y="634.52" text-anchor="middle" fill="#777" font-size="12" font-weight="700">16</text>
<rect x="271.53846153846155" y="653.5233333333333" width="8.615384615384617" height="2.1433333333333167" fill="#ef476f" fill-opacity="0.7" rx="2" ry="2"/>
<text x="275.84615384615387" y="649.5233333333333" text-anchor="middle" fill="#777" font-size="12" font-weight="700">2</text>
<rect x="282.3076923076923" y="650.8441666666666" width="8.615384615384617" height="4.822499999999991" fill="#ef476f" fill-opacity="0.7" rx="2" ry="2"/>
<text x="286.61538461538464" y="646.8441666666666" text-anchor="middle" fill="#777" font-size="12" font-weight="700">4.5</text>
<rect x="293.0769230769231" y="653.5233333333333" width="8.615384615384617" height="2.1433333333333167" fill="#ef476f" fill-opacity="0.7" rx="2" ry="2"/>
<text x="297.3846153846154" y="649.5233333333333" text-anchor="middle" fill="#777" font-size="12" font-weight="700">2</text>
<rect x="303.84615384615387" y="653.5233333333333" width="8.615384615384617" height="2.1433333333333167" fill="#ef476f" fill-opacity="0.7" rx="2" ry="2"/>
<text x="308.1538461538462" y="649.5233333333333" text-anchor="middle" fill="#777" font-size="12" font-weight="700">2</text>
<rect x="314.6153846153846" y="652.4516666666666" width="8.615384615384617" height="3.215000000000032" fill="#ef476f" fill-opacity="0.7" rx="2" ry="2"/>
<text x="318.9230769230769" y="648.4516666666666" text-anchor="middle" fill="#777" font-size="12" font-weight="700">3</text>
<rect x="325.38461538461536" y="652.4516666666666" width="8.615384615384617" height="3.215000000000032" fill="#ef476f" fill-opacity="0.7" rx="2" ry="2"/>
<text x="329.6923076923077" y="648.4516666666666" text-anchor="middle" fill="#777" font-size="12" font-weight="700">3</text>
<rect x="336.15384615384613" y="647.0933333333332" width="8.615384615384617" height="8.57333333333338" fill="#ef476f" fill-opacity="0.7" rx="2" ry="2"/>
<text x="340.46153846153845" y="643.0933333333332" text-anchor="middle" fill="#777" font-size="12" font-weight="700">8</text>
<rect x="368.46153846153845" y="638.52" width="8.615384615384617" height="17.146666666666647" fill="#ef476f" fill-opacity="0.7" rx="2" ry="2"/>
<text x="372.7692307692308" y="634.52" text-anchor="middle" fill="#777" font-size="12" font-weight="700">16</text>
<rect x="379.2307692307692" y="644.9499999999999" width="8.615384615384617" height="10.716666666666697" fill="#ef476f" fill-opacity="0.7" rx="2" ry="2"/>
<text x="383.53846153846155" y="640.9499999999999" text-anchor="middle" fill="#777" font-size="12" font-weight="700">10</text>
<line x1="54" y1="848.5555555555555" x2="390" y2="848.5555555555555" stroke="#eee" stroke-width="1.5" stroke-dasharray="4,4"/>
<text x="46" y="848.5555555555555" text-anchor="end" dominant-baseline="middle" fill="#888" font-size="15" font-weight="700">40</text>
<line x1="54" y1="777.1111111111111" x2="390" y2="777.1111111111111" stroke="#eee" stroke-width="1.5" stroke-dasharray="4,4"/>
<text x="46" y="777.1111111111111" text-anchor="end" dominant-baseline="middle" fill="#888" font-size="15" font-weight="700">80</text>
<text x="222" y="688.6666666666666" text-anchor="middle" dominant-baseline="middle" fill="#333" font-size="18" font-weight="700">|N| range</text>
<line x1="60.46153846153846" y1="920" x2="60.46153846153846" y2="925" stroke="#888" stroke-width="1"/>
<line x1="71.23076923076923" y1="920" x2="71.23076923076923" y2="925" stroke="#888" stroke-width="1"/>
<line x1="82" y1="920" x2="82" y2="925" stroke="#888" stroke-width="1"/>
<line x1="92.76923076923076" y1="920" x2="92.76923076923076" y2="925" stroke="#888" stroke-width="1"/>
<line x1="103.53846153846153" y1="920" x2="103.53846153846153" y2="925" stroke="#888" stroke-width="1"/>
<line x1="114.3076923076923" y1="920" x2="114.3076923076923" y2="925" stroke="#888" stroke-width="1"/>
<line x1="125.07692307692308" y1="920" x2="125.07692307692308" y2="925" stroke="#888" stroke-width="1"/>
<line x1="135.84615384615387" y1="920" x2="135.84615384615387" y2="925" stroke="#888" stroke-width="1"/>
<line x1="146.61538461538464" y1="920" x2="146.61538461538464" y2="925" stroke="#888" stroke-width="1"/>
<line x1="157.38461538461542" y1="920" x2="157.38461538461542" y2="925" stroke="#888" stroke-width="1"/>
<line x1="168.1538461538462" y1="920" x2="168.1538461538462" y2="925" stroke="#888" stroke-width="1"/>
<line x1="178.92307692307693" y1="920" x2="178.92307692307693" y2="925" stroke="#888" stroke-width="1"/>
<line x1="189.6923076923077" y1="920" x2="189.6923076923077" y2="925" stroke="#888" stroke-width="1"/>
<line x1="200.46153846153848" y1="920" x2="200.46153846153848" y2="925" stroke="#888" stroke-width="1"/>
<line x1="211.23076923076925" y1="920" x2="211.23076923076925" y2="925" stroke="#888" stroke-width="1"/>
<line x1="222.00000000000003" y1="920" x2="222.00000000000003" y2="925" stroke="#888" stroke-width="1"/>
<line x1="232.7692307692308" y1="920" x2="232.7692307692308" y2="925" stroke="#888" stroke-width="1"/>
<line x1="243.53846153846158" y1="920" x2="243.53846153846158" y2="925" stroke="#888" stroke-width="1"/>
<line x1="254.30769230769235" y1="920" x2="254.30769230769235" y2="925" stroke="#888" stroke-width="1"/>
<line x1="265.0769230769231" y1="920" x2="265.0769230769231" y2="925" stroke="#888" stroke-width="1"/>
<line x1="275.84615384615387" y1="920" x2="275.84615384615387" y2="925" stroke="#888" stroke-width="1"/>
<line x1="286.61538461538464" y1="920" x2="286.61538461538464" y2="925" stroke="#888" stroke-width="1"/>
<line x1="297.3846153846154" y1="920" x2="297.3846153846154" y2="925" stroke="#888" stroke-width="1"/>
<line x1="308.1538461538462" y1="920" x2="308.1538461538462" y2="925" stroke="#888" stroke-width="1"/>
<line x1="318.9230769230769" y1="920" x2="318.9230769230769" y2="925" stroke="#888" stroke-width="1"/>
<line x1="329.6923076923077" y1="920" x2="329.6923076923077" y2="925" stroke="#888" stroke-width="1"/>
<line x1="340.46153846153845" y1="920" x2="340.46153846153845" y2="925" stroke="#888" stroke-width="1"/>
<line x1="351.2307692307692" y1="920" x2="351.2307692307692" y2="925" stroke="#888" stroke-width="1"/>
<line x1="362" y1="920" x2="362" y2="925" stroke="#888" stroke-width="1"/>
<line x1="372.7692307692308" y1="920" x2="372.7692307692308" y2="925" stroke="#888" stroke-width="1"/>
<line x1="383.53846153846155" y1="920" x2="383.53846153846155" y2="925" stroke="#888" stroke-width="1"/>
<circle cx="60.46153846153846" cy="891.4222222222222" r="3" fill="#06d6a0" fill-opacity="0.8"/>
<text x="60.46153846153846" y="883.4222222222222" text-anchor="middle" fill="#777" font-size="12" font-weight="700">16</text>
<line x1="82" y1="893.2083333333334" x2="82" y2="830.6944444444445" stroke="#06d6a0" stroke-width="3.876923076923078" stroke-linecap="round" opacity="0.7"/>
<text x="82" y="822.6944444444445" text-anchor="middle" fill="#777" font-size="12" font-weight="700">50</text>
<text x="82" y="907.2083333333334" text-anchor="middle" fill="#777" font-size="12" font-weight="700">15</text>
<line x1="114.3076923076923" y1="884.2777777777778" x2="114.3076923076923" y2="862.8444444444444" stroke="#06d6a0" stroke-width="3.876923076923078" stroke-linecap="round" opacity="0.7"/>
<text x="114.3076923076923" y="854.8444444444444" text-anchor="middle" fill="#777" font-size="12" font-weight="700">32</text>
<text x="114.3076923076923" y="898.2777777777778" text-anchor="middle" fill="#777" font-size="12" font-weight="700">20</text>
<circle cx="125.07692307692308" cy="884.2777777777778" r="3" fill="#06d6a0" fill-opacity="0.8"/>
<text x="125.07692307692308" y="876.2777777777778" text-anchor="middle" fill="#777" font-size="12" font-weight="700">20</text>
<circle cx="135.84615384615387" cy="891.4222222222222" r="3" fill="#06d6a0" fill-opacity="0.8"/>
<text x="135.84615384615387" y="883.4222222222222" text-anchor="middle" fill="#777" font-size="12" font-weight="700">16</text>
<line x1="146.61538461538464" y1="884.2777777777778" x2="146.61538461538464" y2="812.8333333333333" stroke="#06d6a0" stroke-width="3.876923076923078" stroke-linecap="round" opacity="0.7"/>
<text x="146.61538461538464" y="804.8333333333333" text-anchor="middle" fill="#777" font-size="12" font-weight="700">60</text>
<text x="146.61538461538464" y="898.2777777777778" text-anchor="middle" fill="#777" font-size="12" font-weight="700">20</text>
<circle cx="157.38461538461542" cy="902.1388888888889" r="3" fill="#06d6a0" fill-opacity="0.8"/>
<text x="157.38461538461542" y="894.1388888888889" text-anchor="middle" fill="#777" font-size="12" font-weight="700">10</text>
<line x1="168.1538461538462" y1="903.925" x2="168.1538461538462" y2="862.8444444444444" stroke="#06d6a0" stroke-width="3.876923076923078" stroke-linecap="round" opacity="0.7"/>
<text x="168.1538461538462" y="854.8444444444444" text-anchor="middle" fill="#777" font-size="12" font-weight="700">32</text>
<text x="168.1538461538462" y="917.925" text-anchor="middle" fill="#777" font-size="12" font-weight="700">9</text>
<line x1="178.92307692307693" y1="902.1388888888889" x2="178.92307692307693" y2="830.6944444444445" stroke="#06d6a0" stroke-width="3.876923076923078" stroke-linecap="round" opacity="0.7"/>
<text x="178.92307692307693" y="822.6944444444445" text-anchor="middle" fill="#777" font-size="12" font-weight="700">50</text>
<text x="178.92307692307693" y="916.1388888888889" text-anchor="middle" fill="#777" font-size="12" font-weight="700">10</text>
<line x1="243.53846153846158" y1="884.2777777777778" x2="243.53846153846158" y2="830.6944444444445" stroke="#06d6a0" stroke-width="3.876923076923078" stroke-linecap="round" opacity="0.7"/>
<text x="243.53846153846158" y="822.6944444444445" text-anchor="middle" fill="#777" font-size="12" font-weight="700">50</text>
<text x="243.53846153846158" y="898.2777777777778" text-anchor="middle" fill="#777" font-size="12" font-weight="700">20</text>
<circle cx="275.84615384615387" cy="894.9944444444444" r="3" fill="#06d6a0" fill-opacity="0.8"/>
<text x="275.84615384615387" y="886.9944444444444" text-anchor="middle" fill="#777" font-size="12" font-weight="700">14</text>
<line x1="297.3846153846154" y1="848.5555555555555" x2="297.3846153846154" y2="705.6666666666666" stroke="#06d6a0" stroke-width="3.876923076923078" stroke-linecap="round" opacity="0.7"/>
<text x="297.3846153846154" y="697.6666666666666" text-anchor="middle" fill="#777" font-size="12" font-weight="700">120</text>
<text x="297.3846153846154" y="862.5555555555555" text-anchor="middle" fill="#777" font-size="12" font-weight="700">40</text>
<circle cx="308.1538461538462" cy="891.4222222222222" r="3" fill="#06d6a0" fill-opacity="0.8"/>
<text x="308.1538461538462" y="883.4222222222222" text-anchor="middle" fill="#777" font-size="12" font-weight="700">16</text>
<circle cx="318.9230769230769" cy="884.2777777777778" r="3" fill="#06d6a0" fill-opacity="0.8"/>
<text x="318.9230769230769" y="876.2777777777778" text-anchor="middle" fill="#777" font-size="12" font-weight="700">20</text>
<line x1="329.6923076923077" y1="894.9944444444444" x2="329.6923076923077" y2="884.2777777777778" stroke="#06d6a0" stroke-width="3.876923076923078" stroke-linecap="round" opacity="0.7"/>
<text x="329.6923076923077" y="876.2777777777778" text-anchor="middle" fill="#777" font-size="12" font-weight="700">20</text>
<text x="329.6923076923077" y="908.9944444444444" text-anchor="middle" fill="#777" font-size="12" font-weight="700">14</text>
<line x1="372.7692307692308" y1="848.5555555555555" x2="372.7692307692308" y2="741.3888888888889" stroke="#06d6a0" stroke-width="3.876923076923078" stroke-linecap="round" opacity="0.7"/>
<text x="372.7692307692308" y="733.3888888888889" text-anchor="middle" fill="#777" font-size="12" font-weight="700">100</text>
<text x="372.7692307692308" y="862.5555555555555" text-anchor="middle" fill="#777" font-size="12" font-weight="700">40</text>
<line x1="383.53846153846155" y1="884.2777777777778" x2="383.53846153846155" y2="741.3888888888889" stroke="#06d6a0" stroke-width="3.876923076923078" stroke-linecap="round" opacity="0.7"/>
<text x="383.53846153846155" y="733.3888888888889" text-anchor="middle" fill="#777" font-size="12" font-weight="700">100</text>
<text x="383.53846153846155" y="898.2777777777778" text-anchor="middle" fill="#777" font-size="12" font-weight="700">20</text>
<text x="60.46153846153846" y="940" text-anchor="end" fill="#000" font-size="14" font-weight="400" transform="rotate(-45 60.46153846153846 940)">[Pur00]</text>
<text x="71.23076923076923" y="940" text-anchor="end" fill="#000" font-size="14" font-weight="400" transform="rotate(-45 71.23076923076923 940)">[PCA02]</text>
<text x="82" y="940" text-anchor="end" fill="#000" font-size="14" font-weight="400" transform="rotate(-45 82 940)">[HZHD*16]</text>
<text x="92.76923076923076" y="940" text-anchor="end" fill="#000" font-size="14" font-weight="400" transform="rotate(-45 92.76923076923076 940)">[HEH10]</text>
<text x="103.53846153846153" y="940" text-anchor="end" fill="#000" font-size="14" font-weight="400" transform="rotate(-45 103.53846153846153 940)">[WPCM02]</text>
<text x="114.3076923076923" y="940" text-anchor="end" fill="#000" font-size="14" font-weight="400" transform="rotate(-45 114.3076923076923 940)">[Hua07]</text>
<text x="125.07692307692308" y="940" text-anchor="end" fill="#000" font-size="14" font-weight="400" transform="rotate(-45 125.07692307692308 940)">[PC97]</text>
<text x="135.84615384615387" y="940" text-anchor="end" fill="#000" font-size="14" font-weight="400" transform="rotate(-45 135.84615384615387 940)">[PC96]</text>
<text x="146.61538461538464" y="940" text-anchor="end" fill="#000" font-size="14" font-weight="400" transform="rotate(-45 146.61538461538464 940)">[BVKW12]</text>
<text x="157.38461538461542" y="940" text-anchor="end" fill="#000" font-size="14" font-weight="400" transform="rotate(-45 157.38461538461542 940)">[EVRW23]</text>
<text x="168.1538461538462" y="940" text-anchor="end" fill="#000" font-size="14" font-weight="400" transform="rotate(-45 168.1538461538462 940)">[Hua13]</text>
<text x="178.92307692307693" y="940" text-anchor="end" fill="#000" font-size="14" font-weight="400" transform="rotate(-45 178.92307692307693 940)">[HH10]</text>
<text x="189.6923076923077" y="940" text-anchor="end" fill="#000" font-size="14" font-weight="400" transform="rotate(-45 189.6923076923077 940)">[AP12]</text>
<text x="200.46153846153848" y="940" text-anchor="end" fill="#000" font-size="14" font-weight="400" transform="rotate(-45 200.46153846153848 940)">[AP13]</text>
<text x="211.23076923076925" y="940" text-anchor="end" fill="#000" font-size="14" font-weight="400" transform="rotate(-45 211.23076923076925 940)">[BLMT16]</text>
<text x="222.00000000000003" y="940" text-anchor="end" fill="#000" font-size="14" font-weight="400" transform="rotate(-45 222.00000000000003 940)">[DHRMM13]</text>
<text x="232.7692307692308" y="940" text-anchor="end" fill="#000" font-size="14" font-weight="400" transform="rotate(-45 232.7692307692308 940)">[HHE08]</text>
<text x="243.53846153846158" y="940" text-anchor="end" fill="#000" font-size="14" font-weight="400" transform="rotate(-45 243.53846153846158 940)">[HEHBD16]</text>
<text x="254.30769230769235" y="940" text-anchor="end" fill="#000" font-size="14" font-weight="400" transform="rotate(-45 254.30769230769235 940)">[HEH09]</text>
<text x="265.0769230769231" y="940" text-anchor="end" fill="#000" font-size="14" font-weight="400" transform="rotate(-45 265.0769230769231 940)">[HEH14]</text>
<text x="275.84615384615387" y="940" text-anchor="end" fill="#000" font-size="14" font-weight="400" transform="rotate(-45 275.84615384615387 940)">[HHE06b]</text>
<text x="286.61538461538464" y="940" text-anchor="end" fill="#000" font-size="14" font-weight="400" transform="rotate(-45 286.61538461538464 940)">[KNS18]</text>
<text x="297.3846153846154" y="940" text-anchor="end" fill="#000" font-size="14" font-weight="400" transform="rotate(-45 297.3846153846154 940)">[KRS14]</text>
<text x="308.1538461538462" y="940" text-anchor="end" fill="#000" font-size="14" font-weight="400" transform="rotate(-45 308.1538461538462 940)">[KZB22]</text>
<text x="318.9230769230769" y="940" text-anchor="end" fill="#000" font-size="14" font-weight="400" transform="rotate(-45 318.9230769230769 940)">[PS08]</text>
<text x="329.6923076923077" y="940" text-anchor="end" fill="#000" font-size="14" font-weight="400" transform="rotate(-45 329.6923076923077 940)">[PHG07]</text>
<text x="340.46153846153845" y="940" text-anchor="end" fill="#000" font-size="14" font-weight="400" transform="rotate(-45 340.46153846153845 940)">[PHNK13]</text>
<text x="351.2307692307692" y="940" text-anchor="end" fill="#000" font-size="14" font-weight="400" transform="rotate(-45 351.2307692307692 940)">[SP17]</text>
<text x="362" y="940" text-anchor="end" fill="#000" font-size="14" font-weight="400" transform="rotate(-45 362 940)">[Sto14]</text>
<text x="372.7692307692308" y="940" text-anchor="end" fill="#000" font-size="14" font-weight="400" transform="rotate(-45 372.7692307692308 940)">[WPG*20]</text>
<text x="383.53846153846155" y="940" text-anchor="end" fill="#000" font-size="14" font-weight="400" transform="rotate(-45 383.53846153846155 940)">[XRP**12]</text>
</g></svg>